<?xml version="1.0" encoding="UTF-8" standalone="no"?>
<!-- Created with Inkscape (http://www.inkscape.org/) -->

<svg
   xmlns:dc="http://purl.org/dc/elements/1.1/"
   xmlns:cc="http://creativecommons.org/ns#"
   xmlns:rdf="http://www.w3.org/1999/02/22-rdf-syntax-ns#"
   xmlns:svg="http://www.w3.org/2000/svg"
   xmlns="http://www.w3.org/2000/svg"
   xmlns:sodipodi="http://sodipodi.sourceforge.net/DTD/sodipodi-0.dtd"
   xmlns:inkscape="http://www.inkscape.org/namespaces/inkscape"
   width="131.62361mm"
   height="83.250023mm"
   viewBox="0 0 466.38288 294.98039"
   id="svg2"
   version="1.1"
   inkscape:version="0.91 r13725"
   sodipodi:docname="drawing.svg">
  <defs
     id="defs4">
    <clipPath
       id="clipPath3407"
       clipPathUnits="userSpaceOnUse">
      <path
         inkscape:connector-curvature="0"
         id="path3409"
         d="m 2837.46,1192.77 c 0,-102.41 -82.99,-185.5 -185.42,-185.5 -102.45,0 -185.37,83.09 -185.37,185.5 0,102.36 82.92,185.39 185.37,185.39 102.43,0 185.42,-83.03 185.42,-185.39 z" />
    </clipPath>
    <radialGradient
       id="radialGradient3411"
       spreadMethod="pad"
       gradientTransform="matrix(65.4961,-65.4961,-65.4961,-65.4961,2726.95,1207.7)"
       gradientUnits="userSpaceOnUse"
       r="1"
       cy="0"
       cx="0"
       fy="0.055246402"
       fx="-0.072245203">
      <stop
         id="stop3413"
         offset="0"
         style="stop-opacity:1;stop-color:#ffffff" />
      <stop
         id="stop3415"
         offset="0.8394614"
         style="stop-opacity:1;stop-color:#dadada" />
      <stop
         id="stop3417"
         offset="1"
         style="stop-opacity:1;stop-color:#dadada" />
    </radialGradient>
  </defs>
  <sodipodi:namedview
     id="base"
     pagecolor="#ffffff"
     bordercolor="#666666"
     borderopacity="1.0"
     inkscape:pageopacity="0.0"
     inkscape:pageshadow="2"
     inkscape:zoom="0.35"
     inkscape:cx="33.905726"
     inkscape:cy="-235.36695"
     inkscape:document-units="px"
     inkscape:current-layer="layer1"
     showgrid="false"
     inkscape:window-width="2128"
     inkscape:window-height="1392"
     inkscape:window-x="255"
     inkscape:window-y="0"
     inkscape:window-maximized="0"
     fit-margin-top="0"
     fit-margin-left="0"
     fit-margin-right="0"
     fit-margin-bottom="0" />
  <metadata
     id="metadata7">
    <rdf:RDF>
      <cc:Work
         rdf:about="">
        <dc:format>image/svg+xml</dc:format>
        <dc:type
           rdf:resource="http://purl.org/dc/dcmitype/StillImage" />
        <dc:title></dc:title>
      </cc:Work>
    </rdf:RDF>
  </metadata>
  <g
     inkscape:label="Layer 1"
     inkscape:groupmode="layer"
     id="layer1"
     transform="translate(-1.0942737,-2.0148689)">
    <g
       transform="matrix(1.25,0,0,-1.25,1.0940173,296.99405)"
       inkscape:label="ink_ext_XXXXXX"
       id="g3363">
      <g
         transform="scale(0.1,0.1)"
         id="g3365">
        <path
           inkscape:connector-curvature="0"
           id="path3367"
           style="fill:#231f20;fill-opacity:1;fill-rule:nonzero;stroke:none"
           d="m 19.6836,19.6719 3691.7,0 0,2320.48 -3691.7,0 0,-2320.48 z" />
        <path
           inkscape:connector-curvature="0"
           id="path3369"
           style="fill:none;stroke:#ffffff;stroke-width:39.36309814;stroke-linecap:butt;stroke-linejoin:miter;stroke-miterlimit:10;stroke-dasharray:none;stroke-opacity:1"
           d="m 19.6836,19.6719 3691.7,0 0,2320.48 -3691.7,0 0,-2320.48 z" />
        <path
           inkscape:connector-curvature="0"
           id="path3371"
           style="fill:#e9e9e9;fill-opacity:1;fill-rule:nonzero;stroke:none"
           d="m 2587.56,1229.03 c 35.46,-20.47 64.48,-3.72 64.48,37.22 l 0,657.01 c 0,40.95 -29.02,57.69 -64.47,37.22 l -568.93,-328.52 c -35.45,-20.47 -35.45,-53.97 0.01,-74.44 l 568.91,-328.49" />
        <path
           inkscape:connector-curvature="0"
           id="path3373"
           style="fill:none;stroke:#231f20;stroke-width:26.26129913;stroke-linecap:butt;stroke-linejoin:miter;stroke-miterlimit:10;stroke-dasharray:none;stroke-opacity:1"
           d="m 2587.56,1229.03 c 35.46,-20.47 64.48,-3.72 64.48,37.22 l 0,657.01 c 0,40.95 -29.02,57.69 -64.47,37.22 l -568.93,-328.52 c -35.45,-20.47 -35.45,-53.97 0.01,-74.44 l 568.91,-328.49 z" />
        <path
           inkscape:connector-curvature="0"
           id="path3375"
           style="fill:#e9e9e9;fill-opacity:1;fill-rule:nonzero;stroke:none"
           d="m 2715.67,1229.03 c -35.45,-20.47 -64.46,-3.72 -64.46,37.22 l 0,657.01 c 0,40.95 29.01,57.69 64.46,37.22 l 568.91,-328.52 c 35.44,-20.47 35.44,-53.98 0,-74.44 l -568.91,-328.49" />
        <path
           inkscape:connector-curvature="0"
           id="path3377"
           style="fill:none;stroke:#231f20;stroke-width:26.26129913;stroke-linecap:butt;stroke-linejoin:miter;stroke-miterlimit:10;stroke-dasharray:none;stroke-opacity:1"
           d="m 2715.67,1229.03 c -35.45,-20.47 -64.46,-3.72 -64.46,37.22 l 0,657.01 c 0,40.95 29.01,57.69 64.46,37.22 l 568.91,-328.52 c 35.44,-20.47 35.44,-53.98 0,-74.44 l -568.91,-328.49 z" />
        <path
           inkscape:connector-curvature="0"
           id="path3379"
           style="fill:#e9e9e9;fill-opacity:1;fill-rule:nonzero;stroke:none"
           d="m 2716.5,424.012 c -35.45,-20.492 -64.46,-3.731 -64.45,37.207 l 0.07,657.031 c 0.01,40.94 29.03,57.69 64.48,37.21 l 568.81,-328.472 c 35.44,-20.476 35.44,-53.976 0,-74.449 L 2716.5,424.012" />
        <path
           inkscape:connector-curvature="0"
           id="path3381"
           style="fill:none;stroke:#231f20;stroke-width:26.26129913;stroke-linecap:butt;stroke-linejoin:miter;stroke-miterlimit:10;stroke-dasharray:none;stroke-opacity:1"
           d="m 2716.5,424.012 c -35.45,-20.492 -64.46,-3.731 -64.45,37.207 l 0.07,657.031 c 0.01,40.94 29.03,57.69 64.48,37.21 l 568.81,-328.472 c 35.44,-20.476 35.44,-53.976 0,-74.449 L 2716.5,424.012 Z" />
        <path
           inkscape:connector-curvature="0"
           id="path3383"
           style="fill:#e9e9e9;fill-opacity:1;fill-rule:nonzero;stroke:none"
           d="m 2715.67,1229.03 c -35.45,-20.47 -35.45,-53.97 0.01,-74.44 l 568.89,-328.461 c 35.45,-20.481 64.47,-3.719 64.47,37.223 l 0,656.938 c 0,40.94 -29.02,57.69 -64.46,37.23 l -568.91,-328.49" />
        <path
           inkscape:connector-curvature="0"
           id="path3385"
           style="fill:none;stroke:#231f20;stroke-width:26.26129913;stroke-linecap:butt;stroke-linejoin:miter;stroke-miterlimit:10;stroke-dasharray:none;stroke-opacity:1"
           d="m 2715.67,1229.03 c -35.45,-20.47 -35.45,-53.97 0.01,-74.44 l 568.89,-328.461 c 35.45,-20.481 64.47,-3.719 64.47,37.223 l 0,656.938 c 0,40.94 -29.02,57.69 -64.46,37.23 l -568.91,-328.49 z" />
        <path
           inkscape:connector-curvature="0"
           id="path3387"
           style="fill:#656263;fill-opacity:1;fill-rule:nonzero;stroke:none"
           d="m 2586.73,424.539 c 35.46,-20.469 64.48,-3.707 64.48,37.223 l 0,657.028 c 0,40.95 -29.02,57.7 -64.47,37.22 L 2017.75,827.461 c -35.45,-20.481 -35.45,-53.981 0.01,-74.449 l 568.97,-328.473" />
        <path
           inkscape:connector-curvature="0"
           id="path3389"
           style="fill:none;stroke:#231f20;stroke-width:26.26129913;stroke-linecap:butt;stroke-linejoin:miter;stroke-miterlimit:10;stroke-dasharray:none;stroke-opacity:1"
           d="m 2586.73,424.539 c 35.46,-20.469 64.48,-3.707 64.48,37.223 l 0,657.028 c 0,40.95 -29.02,57.7 -64.47,37.22 L 2017.75,827.461 c -35.45,-20.481 -35.45,-53.981 0.01,-74.449 l 568.97,-328.473 z" />
        <path
           inkscape:connector-curvature="0"
           id="path3391"
           style="fill:#656263;fill-opacity:1;fill-rule:nonzero;stroke:none"
           d="m 2586.73,1230.45 c 35.46,-20.46 35.46,-53.96 0.01,-74.44 L 2017.75,827.461 c -35.45,-20.481 -64.46,-3.723 -64.46,37.211 l 0,656.998 c 0,40.94 29.01,57.7 64.47,37.23 l 568.97,-328.45" />
        <path
           inkscape:connector-curvature="0"
           id="path3393"
           style="fill:none;stroke:#231f20;stroke-width:26.26129913;stroke-linecap:butt;stroke-linejoin:miter;stroke-miterlimit:10;stroke-dasharray:none;stroke-opacity:1"
           d="m 2586.73,1230.45 c 35.46,-20.46 35.46,-53.96 0.01,-74.44 L 2017.75,827.461 c -35.45,-20.481 -64.46,-3.723 -64.46,37.211 l 0,656.998 c 0,40.94 29.01,57.7 64.47,37.23 l 568.97,-328.45 z" />
        <path
           inkscape:connector-curvature="0"
           id="path3395"
           style="fill:#e9e9e9;fill-opacity:1;fill-rule:nonzero;stroke:none"
           d="m 507.25,1160.5 c 32.84,33.7 69.82,59.02 111.043,75.98 41.219,16.89 83.168,25.26 125.941,25.26 42.715,0 84.657,-8.37 125.946,-25.26 41.23,-16.96 78.222,-42.28 111.047,-75.98 l 46.163,-47.62 -92.355,-96.67 -47.726,47.58 c -19.883,20.49 -42.246,35.8 -67.071,46.07 -24.832,10.19 -50.136,15.31 -76.004,15.31 -25.851,0 -51.16,-5.12 -75.996,-15.31 -24.82,-10.27 -47.179,-25.58 -67.066,-46.07 -19.902,-19.5 -34.801,-42.01 -44.68,-67.52 -9.969,-25.579 -14.965,-51.758 -14.965,-78.329 0,-26.632 4.996,-52.73 14.965,-78.269 9.879,-25.57 24.778,-48.66 44.68,-69.102 39.742,-40.968 87.461,-61.461 143.062,-61.461 26.825,0 52.645,5.2 77.5,15.403 24.844,10.207 46.68,25.57 65.575,46.058 l 47.726,47.578 92.355,-96.718 -46.163,-47.578 C 948.402,640.039 911.41,614.77 870.18,597.84 828.891,581.02 786.949,572.52 744.234,572.52 c -42.773,0 -84.722,8.5 -125.941,25.32 -41.223,16.93 -78.203,42.199 -111.043,76.012 -32.773,33.699 -57.133,71.597 -72.965,113.597 -15.972,41.93 -23.902,85.192 -23.902,129.699 0,44.571 7.93,87.752 23.902,129.762 15.832,41.89 40.192,79.85 72.965,113.59" />
        <path
           inkscape:connector-curvature="0"
           id="path3397"
           style="fill:#e9e9e9;fill-opacity:1;fill-rule:nonzero;stroke:none"
           d="m 1081.07,572.52 132.602,0 0,965.617 -132.602,0 0,-965.617 z" />
        <path
           inkscape:connector-curvature="0"
           id="path3399"
           style="fill:#e9e9e9;fill-opacity:1;fill-rule:nonzero;stroke:none"
           d="m 1797.82,709.109 0,208.832 c 0,28.668 -5.15,55.481 -15.6,80.618 -10.44,25.061 -24.81,47.031 -43.2,66.011 -18.38,18.93 -39.79,33.72 -64.08,44.51 -24.38,10.71 -50.49,16.09 -78.24,16.09 -27.88,0 -54.18,-5.38 -78.98,-16.09 -24.86,-10.79 -46.46,-25.58 -64.85,-44.51 -18.38,-18.98 -32.74,-40.95 -43.26,-66.011 -10.4,-25.137 -15.63,-51.95 -15.63,-80.618 0,-28.66 5.23,-55.82 15.63,-81.332 10.52,-25.66 24.88,-47.828 43.26,-66.82 18.39,-18.918 39.99,-33.769 64.85,-44.508 24.8,-10.812 51.1,-16.172 78.98,-16.172 l 201.12,0 z M 1596.7,1261.74 c 46.65,0 90.17,-8.91 130.41,-26.77 40.17,-18 75.52,-42.54 105.81,-73.68 30.29,-31.28 54.13,-67.6 71.55,-109.02 17.31,-41.41 25.99,-86.231 25.99,-134.329 l 0,-345.421 -333.76,0 c -45.74,0 -88.92,8.941 -129.69,26.878 -40.69,17.864 -76.5,42.731 -107.29,74.454 -30.79,31.757 -54.93,68.539 -72.24,110.527 -17.48,41.891 -26.15,86.5 -26.15,133.562 0,48.098 8.67,92.919 26.15,134.329 17.31,41.42 41.45,77.74 72.24,109.02 30.79,31.14 66.6,55.68 107.29,73.68 40.77,17.86 83.95,26.77 129.69,26.77" />
        <path
           inkscape:connector-curvature="0"
           id="path3401"
           style="fill:#e9e9e9;fill-opacity:1;fill-rule:nonzero;stroke:none"
           d="m 2571.33,1261.74 0,-136.57 -403.91,0 c -18.88,0 -34.74,-6.68 -47.63,-19.94 -12.95,-13.31 -19.45,-29.72 -19.45,-49.16 0,-19.42 6.5,-36.06 19.45,-49.84 12.89,-13.89 28.75,-20.75 47.63,-20.75 l 268.31,0 c 27.81,0 53.86,-5.378 78.25,-16.121 24.29,-10.711 45.7,-25.32 64.06,-43.668 18.36,-18.461 32.81,-40.203 43.26,-65.312 10.4,-25.141 15.6,-51.981 15.6,-80.57 0,-28.649 -5.2,-55.571 -15.6,-80.618 -10.45,-25.121 -24.9,-47.109 -43.26,-66.043 -18.36,-18.976 -39.77,-33.75 -64.06,-44.488 -24.39,-10.73 -50.44,-16.14 -78.25,-16.14 l -402.44,0 0,136.589 402.44,0 c 19.8,0 36.29,6.723 49.19,20.063 12.89,13.219 19.39,30.148 19.39,50.637 0,19.371 -6.5,35.8 -19.39,49.05 -12.9,13.313 -29.39,20.051 -49.19,20.051 l -268.31,0 c -27.8,0 -53.85,5.281 -78.18,16.102 -24.39,10.738 -45.48,25.578 -63.36,44.508 -17.86,18.89 -32.13,40.89 -42.43,65.929 -10.51,25.061 -15.73,52.021 -15.73,80.621 0,28.68 5.22,55.56 15.73,80.62 10.3,25.06 24.57,46.8 42.43,65.15 17.88,18.54 38.97,33.13 63.36,43.86 24.33,10.74 50.38,16.04 78.18,16.04 l 403.91,0" />
        <g
           id="g3403">
          <g
             clip-path="url(#clipPath3407)"
             id="g3405">
            <path
               inkscape:connector-curvature="0"
               id="path3419"
               style="fill:url(#radialGradient3411);fill-opacity:1;fill-rule:nonzero;stroke:none"
               d="m 2837.46,1192.77 c 0,-102.41 -82.99,-185.5 -185.42,-185.5 -102.45,0 -185.37,83.09 -185.37,185.5 0,102.36 82.92,185.39 185.37,185.39 102.43,0 185.42,-83.03 185.42,-185.39" />
          </g>
        </g>
        <path
           inkscape:connector-curvature="0"
           id="path3421"
           style="fill:none;stroke:#231f20;stroke-width:26.26129913;stroke-linecap:butt;stroke-linejoin:miter;stroke-miterlimit:10;stroke-dasharray:none;stroke-opacity:1"
           d="m 2837.46,1192.77 c 0,-102.41 -82.99,-185.5 -185.42,-185.5 -102.45,0 -185.37,83.09 -185.37,185.5 0,102.36 82.92,185.39 185.37,185.39 102.43,0 185.42,-83.03 185.42,-185.39 z" />
      </g>
    </g>
  </g>
</svg>
