<?xml version="1.0" encoding="UTF-8" standalone="no"?>
<!-- Created with Inkscape (http://www.inkscape.org/) -->

<svg
   xmlns:dc="http://purl.org/dc/elements/1.1/"
   xmlns:cc="http://creativecommons.org/ns#"
   xmlns:rdf="http://www.w3.org/1999/02/22-rdf-syntax-ns#"
   xmlns:svg="http://www.w3.org/2000/svg"
   xmlns="http://www.w3.org/2000/svg"
   xmlns:sodipodi="http://sodipodi.sourceforge.net/DTD/sodipodi-0.dtd"
   xmlns:inkscape="http://www.inkscape.org/namespaces/inkscape"
   id="svg3499"
   version="1.1"
   inkscape:version="0.91 r13725"
   xml:space="preserve"
   width="407.89999"
   height="218.41251"
   viewBox="0 0 407.89999 218.41251"
   sodipodi:docname="CLAS-color.svg"><metadata
     id="metadata3505"><rdf:RDF><cc:Work
         rdf:about=""><dc:format>image/svg+xml</dc:format><dc:type
           rdf:resource="http://purl.org/dc/dcmitype/StillImage" /><dc:title></dc:title></cc:Work></rdf:RDF></metadata><defs
     id="defs3503"><clipPath
       clipPathUnits="userSpaceOnUse"
       id="clipPath3547"><path
         d="m 2683.06,873.906 c 0,-113.258 -91.75,-204.976 -204.89,-204.976 -113.31,0 -204.98,91.718 -204.98,204.976 0,113.176 91.67,205.024 204.98,205.024 113.14,0 204.89,-91.848 204.89,-205.024 z"
         id="path3549"
         inkscape:connector-curvature="0" /></clipPath><radialGradient
       fx="-0.072245203"
       fy="0.055246402"
       cx="0"
       cy="0"
       r="1"
       gradientUnits="userSpaceOnUse"
       gradientTransform="matrix(72.4002,-72.4002,-72.4002,-72.4002,2560.92,890.498)"
       spreadMethod="pad"
       id="radialGradient3551"><stop
         style="stop-opacity:1;stop-color:#ffffff"
         offset="0"
         id="stop3553" /><stop
         style="stop-opacity:1;stop-color:#bf1b2c"
         offset="0.8394614"
         id="stop3555" /><stop
         style="stop-opacity:1;stop-color:#bf1b2c"
         offset="1"
         id="stop3557" /></radialGradient></defs><sodipodi:namedview
     pagecolor="#ffffff"
     bordercolor="#666666"
     borderopacity="1"
     objecttolerance="10"
     gridtolerance="10"
     guidetolerance="10"
     inkscape:pageopacity="0"
     inkscape:pageshadow="2"
     inkscape:window-width="1105"
     inkscape:window-height="725"
     id="namedview3501"
     showgrid="false"
     inkscape:zoom="2.3486149"
     inkscape:cx="203.95"
     inkscape:cy="109.20625"
     inkscape:window-x="1433"
     inkscape:window-y="290"
     inkscape:window-maximized="0"
     inkscape:current-layer="g3507" /><g
     id="g3507"
     inkscape:groupmode="layer"
     inkscape:label="ink_ext_XXXXXX"
     transform="matrix(1.25,0,0,-1.25,0,218.4125)"><g
       id="g3509"
       transform="scale(0.1,0.1)"><path
         d="m 2406.9,914.012 c 39.2,-22.629 71.27,-4.114 71.27,41.144 l 0,726.274 c 0,45.26 -32.07,63.77 -71.27,41.15 L 1777.91,1359.5 c -39.2,-22.62 -39.2,-59.66 0,-82.29 L 2406.9,914.012"
         style="fill:#393536;fill-opacity:1;fill-rule:nonzero;stroke:none"
         id="path3511"
         inkscape:connector-curvature="0" /><path
         d="m 2406.9,914.012 c 39.2,-22.629 71.27,-4.114 71.27,41.144 l 0,726.274 c 0,45.26 -32.07,63.77 -71.27,41.15 L 1777.91,1359.5 c -39.2,-22.62 -39.2,-59.66 0,-82.29 L 2406.9,914.012 Z"
         style="fill:none;stroke:#ffffff;stroke-width:29.03100014;stroke-linecap:butt;stroke-linejoin:miter;stroke-miterlimit:10;stroke-dasharray:none;stroke-opacity:1"
         id="path3513"
         inkscape:connector-curvature="0" /><path
         d="m 2548.45,914.008 c -39.2,-22.625 -71.27,-4.11 -71.27,41.148 l 0,726.274 c 0,45.26 32.07,63.77 71.27,41.14 L 3177.4,1359.4 c 39.2,-22.63 39.2,-59.67 0,-82.29 L 2548.45,914.008"
         style="fill:#393536;fill-opacity:1;fill-rule:nonzero;stroke:none"
         id="path3515"
         inkscape:connector-curvature="0" /><path
         d="m 2548.45,914.008 c -39.2,-22.625 -71.27,-4.11 -71.27,41.148 l 0,726.274 c 0,45.26 32.07,63.77 71.27,41.14 L 3177.4,1359.4 c 39.2,-22.63 39.2,-59.67 0,-82.29 L 2548.45,914.008 Z"
         style="fill:none;stroke:#ffffff;stroke-width:29.03100014;stroke-linecap:butt;stroke-linejoin:miter;stroke-miterlimit:10;stroke-dasharray:none;stroke-opacity:1"
         id="path3517"
         inkscape:connector-curvature="0" /><path
         d="m 2549.44,24.1797 c -39.2,-22.64064 -71.27,-4.1211 -71.27,41.1406 l 0,726.2967 c 0,45.258 32.07,63.774 71.27,41.145 L 3178.4,469.641 c 39.2,-22.629 39.2,-59.661 0,-82.289 L 2549.44,24.1797"
         style="fill:#393536;fill-opacity:1;fill-rule:nonzero;stroke:none"
         id="path3519"
         inkscape:connector-curvature="0" /><path
         d="m 2549.44,24.1797 c -39.2,-22.64064 -71.27,-4.1211 -71.27,41.1406 l 0,726.2967 c 0,45.258 32.07,63.774 71.27,41.145 L 3178.4,469.641 c 39.2,-22.629 39.2,-59.661 0,-82.289 L 2549.44,24.1797 Z"
         style="fill:none;stroke:#ffffff;stroke-width:29.03100014;stroke-linecap:butt;stroke-linejoin:miter;stroke-miterlimit:10;stroke-dasharray:none;stroke-opacity:1"
         id="path3521"
         inkscape:connector-curvature="0" /><path
         d="m 2548.45,914.008 c -39.2,-22.625 -39.2,-59.656 0,-82.285 L 3177.4,468.621 c 39.2,-22.609 71.27,-4.101 71.27,41.149 l 0,726.19 c 0,45.26 -32.07,63.77 -71.27,41.15 L 2548.45,914.008"
         style="fill:#393536;fill-opacity:1;fill-rule:nonzero;stroke:none"
         id="path3523"
         inkscape:connector-curvature="0" /><path
         d="m 2548.45,914.008 c -39.2,-22.625 -39.2,-59.656 0,-82.285 L 3177.4,468.621 c 39.2,-22.609 71.27,-4.101 71.27,41.149 l 0,726.19 c 0,45.26 -32.07,63.77 -71.27,41.15 L 2548.45,914.008 Z"
         style="fill:none;stroke:#ffffff;stroke-width:29.03100014;stroke-linecap:butt;stroke-linejoin:miter;stroke-miterlimit:10;stroke-dasharray:none;stroke-opacity:1"
         id="path3525"
         inkscape:connector-curvature="0" /><path
         d="m 2405.91,24.7188 c 39.2,-22.62896 71.27,-4.1172 71.27,41.1523 l 0,726.2339 c 0,45.258 -32.07,63.774 -71.27,41.145 L 1776.89,470.16 c -39.2,-22.629 -39.2,-59.66 0,-82.289 L 2405.91,24.7188"
         style="fill:#bdbcbc;fill-opacity:1;fill-rule:nonzero;stroke:none"
         id="path3527"
         inkscape:connector-curvature="0" /><path
         d="m 2405.91,24.7188 c 39.2,-22.62896 71.27,-4.1172 71.27,41.1523 l 0,726.2339 c 0,45.258 -32.07,63.774 -71.27,41.145 L 1776.89,470.16 c -39.2,-22.629 -39.2,-59.66 0,-82.289 L 2405.91,24.7188 Z"
         style="fill:none;stroke:#ffffff;stroke-width:29.03100014;stroke-linecap:butt;stroke-linejoin:miter;stroke-miterlimit:10;stroke-dasharray:none;stroke-opacity:1"
         id="path3529"
         inkscape:connector-curvature="0" /><path
         d="m 2405.91,915.512 c 39.2,-22.625 39.2,-59.653 0,-82.282 L 1776.89,470.148 c -39.2,-22.617 -71.27,-4.109 -71.27,41.153 l 0,726.189 c 0,45.26 32.07,63.78 71.27,41.15 l 629.02,-363.128"
         style="fill:#bdbcbc;fill-opacity:1;fill-rule:nonzero;stroke:none"
         id="path3531"
         inkscape:connector-curvature="0" /><path
         d="m 2405.91,915.512 c 39.2,-22.625 39.2,-59.653 0,-82.282 L 1776.89,470.148 c -39.2,-22.617 -71.27,-4.109 -71.27,41.153 l 0,726.189 c 0,45.26 32.07,63.78 71.27,41.15 l 629.02,-363.128 z"
         style="fill:none;stroke:#ffffff;stroke-width:29.03100014;stroke-linecap:butt;stroke-linejoin:miter;stroke-miterlimit:10;stroke-dasharray:none;stroke-opacity:1"
         id="path3533"
         inkscape:connector-curvature="0" /><path
         d="m 107.063,838.281 c 36.3,37.344 77.218,65.297 122.765,84.024 45.617,18.695 91.981,28.008 139.242,28.008 47.2,0 93.645,-9.313 139.246,-28.008 45.516,-18.727 86.465,-46.68 122.676,-84.024 L 682.094,785.652 579.957,678.73 527.223,731.391 c -21.973,22.543 -46.711,39.523 -74.114,50.875 -27.449,11.273 -55.511,16.984 -84.039,16.984 -28.59,0 -56.586,-5.711 -84.015,-16.984 -27.461,-11.352 -52.168,-28.332 -74.172,-50.875 -21.988,-21.571 -38.477,-46.379 -49.406,-74.719 -11.028,-28.223 -16.461,-57.16 -16.461,-86.453 0,-29.481 5.433,-58.36 16.461,-86.617 10.929,-28.301 27.418,-53.75 49.406,-76.321 43.953,-45.281 96.66,-67.929 158.187,-67.929 29.66,0 58.188,5.718 85.637,17 27.461,11.296 51.606,28.308 72.516,50.929 l 52.734,52.629 102.137,-106.969 -51.102,-52.66 C 594.781,263.02 553.832,234.98 508.316,216.34 462.715,197.672 416.27,188.332 369.07,188.332 c -47.261,0 -93.625,9.34 -139.242,28.008 -45.547,18.64 -86.465,46.68 -122.765,83.941 -36.2153,37.367 -63.1294,79.27 -80.6646,125.68 C 8.76172,472.27 0,520.102 0,569.32 c 0,49.27 8.76172,96.989 26.3984,143.391 17.5352,46.328 44.4493,88.227 80.6646,125.57"
         style="fill:#393536;fill-opacity:1;fill-rule:nonzero;stroke:none"
         id="path3535"
         inkscape:connector-curvature="0" /><path
         d="m 741.391,188.332 146.633,0 0,1067.44 -146.633,0 0,-1067.44 z"
         style="fill:#393536;fill-opacity:1;fill-rule:nonzero;stroke:none"
         id="path3537"
         inkscape:connector-curvature="0" /><path
         d="m 1533.82,339.352 0,230.867 c 0,31.59 -5.74,61.312 -17.26,89.051 -11.55,27.621 -27.48,51.968 -47.83,72.91 -20.32,20.906 -43.94,37.367 -70.81,49.187 -26.95,11.957 -55.79,17.883 -86.51,17.883 -30.78,0 -59.85,-5.926 -87.31,-17.883 -27.46,-11.82 -51.32,-28.281 -71.67,-49.187 -20.34,-20.942 -36.22,-45.289 -47.79,-72.91 -11.54,-27.739 -17.27,-57.461 -17.27,-89.051 0,-31.797 5.73,-61.739 17.27,-90.047 11.57,-28.262 27.45,-52.863 47.79,-73.793 20.35,-20.899 44.21,-37.289 71.67,-49.18 27.46,-11.91 56.53,-17.847 87.31,-17.847 l 222.41,0 z m -222.41,610.961 c 51.63,0 99.66,-9.883 144.11,-29.758 44.54,-19.789 83.51,-46.895 116.98,-81.426 33.56,-34.586 59.9,-74.656 79.15,-120.488 19.22,-45.782 28.86,-95.352 28.86,-148.422 l 0,-381.887 -369.1,0 c -50.52,0 -98.29,9.906 -143.36,29.668 -45.02,19.82 -84.56,47.25 -118.57,82.281 -34.08,35.078 -60.726,75.821 -79.906,122.231 -19.265,46.41 -28.828,95.547 -28.828,147.707 0,53.07 9.563,102.64 28.828,148.422 19.18,45.832 45.826,85.902 79.906,120.488 34.01,34.531 73.55,61.637 118.57,81.426 45.07,19.875 92.84,29.758 143.36,29.758"
         style="fill:#393536;fill-opacity:1;fill-rule:nonzero;stroke:none"
         id="path3539"
         inkscape:connector-curvature="0" /><path
         d="m 2388.88,950.313 0,-151.063 -446.53,0 c -20.8,0 -38.41,-7.375 -52.64,-22.086 -14.35,-14.687 -21.45,-32.785 -21.45,-54.293 0,-21.512 7.1,-39.832 21.45,-55.172 14.23,-15.258 31.84,-22.898 52.64,-22.898 l 296.58,0 c 30.82,0 59.59,-5.852 86.56,-17.86 26.78,-11.761 50.42,-27.953 70.78,-48.339 20.4,-20.364 36.39,-44.364 47.89,-72.09 11.54,-27.684 17.25,-57.41 17.25,-89.102 0,-31.64 -5.71,-61.371 -17.25,-89.07 -11.5,-27.781 -27.49,-52.059 -47.89,-72.942 -20.36,-21 -44,-37.398 -70.78,-49.277 -26.97,-11.812 -55.74,-17.789 -86.56,-17.789 l -444.83,0 0,151.02 444.83,0 c 21.97,0 40.1,7.386 54.46,22.117 14.22,14.633 21.4,33.301 21.4,55.941 0,21.512 -7.18,39.61 -21.4,54.352 -14.36,14.66 -32.49,22.027 -54.46,22.027 l -296.58,0 c -30.68,0 -59.51,5.949 -86.43,17.801 -26.91,11.84 -50.33,28.301 -70.07,49.219 -19.73,20.902 -35.41,45.222 -46.9,72.929 -11.51,27.762 -17.33,57.442 -17.33,89.133 0,31.66 5.82,61.309 17.33,89.098 11.49,27.679 27.17,51.75 46.9,72.117 19.74,20.391 43.16,36.469 70.07,48.375 26.92,11.898 55.75,17.852 86.43,17.852 l 446.53,0"
         style="fill:#393536;fill-opacity:1;fill-rule:nonzero;stroke:none"
         id="path3541"
         inkscape:connector-curvature="0" /><g
         id="g3543"><g
           id="g3545"
           clip-path="url(#clipPath3547)"><path
             d="m 2683.06,873.906 c 0,-113.258 -91.75,-204.976 -204.89,-204.976 -113.31,0 -204.98,91.718 -204.98,204.976 0,113.176 91.67,205.024 204.98,205.024 113.14,0 204.89,-91.848 204.89,-205.024"
             style="fill:url(#radialGradient3551);fill-opacity:1;fill-rule:nonzero;stroke:none"
             id="path3559"
             inkscape:connector-curvature="0" /></g></g><path
         d="m 2683.06,873.906 c 0,-113.258 -91.75,-204.976 -204.89,-204.976 -113.31,0 -204.98,91.718 -204.98,204.976 0,113.176 91.67,205.024 204.98,205.024 113.14,0 204.89,-91.848 204.89,-205.024 z"
         style="fill:none;stroke:#ffffff;stroke-width:29.03100014;stroke-linecap:butt;stroke-linejoin:miter;stroke-miterlimit:10;stroke-dasharray:none;stroke-opacity:1"
         id="path3561"
         inkscape:connector-curvature="0" /></g></g></svg>