<?xml version="1.0" encoding="UTF-8" standalone="no"?>
<!-- Created with Inkscape (http://www.inkscape.org/) -->

<svg
   xmlns:dc="http://purl.org/dc/elements/1.1/"
   xmlns:cc="http://creativecommons.org/ns#"
   xmlns:rdf="http://www.w3.org/1999/02/22-rdf-syntax-ns#"
   xmlns:svg="http://www.w3.org/2000/svg"
   xmlns="http://www.w3.org/2000/svg"
   xmlns:sodipodi="http://sodipodi.sourceforge.net/DTD/sodipodi-0.dtd"
   xmlns:inkscape="http://www.inkscape.org/namespaces/inkscape"
   width="94.880066mm"
   height="50.783672mm"
   viewBox="0 0 336.18921 179.94215"
   id="svg3582"
   version="1.1"
   inkscape:version="0.91 r13725"
   sodipodi:docname="CLAS-BW.svg">
  <defs
     id="defs3584">
    <clipPath
       id="clipPath3657"
       clipPathUnits="userSpaceOnUse">
      <path
         inkscape:connector-curvature="0"
         id="path3659"
         d="m 2211.36,720.277 c 0,-93.359 -75.55,-168.976 -168.88,-168.976 -93.33,0 -168.94,75.617 -168.94,168.976 0,93.293 75.61,168.977 168.94,168.977 93.33,0 168.88,-75.684 168.88,-168.977 z" />
    </clipPath>
    <radialGradient
       id="radialGradient3661"
       spreadMethod="pad"
       gradientTransform="matrix(59.676,-59.676,-59.676,-59.676,2110.68,733.928)"
       gradientUnits="userSpaceOnUse"
       r="1"
       cy="0"
       cx="0"
       fy="0.055246402"
       fx="-0.072245203">
      <stop
         id="stop3663"
         offset="0"
         style="stop-opacity:1;stop-color:#ffffff" />
      <stop
         id="stop3665"
         offset="0.8394614"
         style="stop-opacity:1;stop-color:#484445" />
      <stop
         id="stop3667"
         offset="1"
         style="stop-opacity:1;stop-color:#484445" />
    </radialGradient>
  </defs>
  <sodipodi:namedview
     id="base"
     pagecolor="#ffffff"
     bordercolor="#666666"
     borderopacity="1.0"
     inkscape:pageopacity="0.0"
     inkscape:pageshadow="2"
     inkscape:zoom="0.35"
     inkscape:cx="368.80884"
     inkscape:cy="-347.17178"
     inkscape:document-units="px"
     inkscape:current-layer="layer1"
     showgrid="false"
     fit-margin-top="0"
     fit-margin-left="0"
     fit-margin-right="0"
     fit-margin-bottom="0"
     inkscape:window-width="2560"
     inkscape:window-height="1392"
     inkscape:window-x="1390"
     inkscape:window-y="266"
     inkscape:window-maximized="0" />
  <metadata
     id="metadata3587">
    <rdf:RDF>
      <cc:Work
         rdf:about="">
        <dc:format>image/svg+xml</dc:format>
        <dc:type
           rdf:resource="http://purl.org/dc/dcmitype/StillImage" />
        <dc:title></dc:title>
      </cc:Work>
    </rdf:RDF>
  </metadata>
  <g
     inkscape:label="Layer 1"
     inkscape:groupmode="layer"
     id="layer1"
     transform="translate(-6.1911571,-5.2482771)">
    <g
       transform="matrix(1.25,0,0,-1.25,6.1911571,185.19762)"
       inkscape:label="ink_ext_XXXXXX"
       id="g3617">
      <g
         transform="scale(0.1,0.1)"
         id="g3619">
        <path
           inkscape:connector-curvature="0"
           id="path3621"
           style="fill:#393536;fill-opacity:1;fill-rule:nonzero;stroke:none"
           d="m 1983.74,753.316 c 32.3,-18.652 58.74,-3.386 58.74,33.918 l 0,598.586 c 0,37.3 -26.44,52.56 -58.74,33.91 l -518.43,-299.28 c -32.3,-18.65 -32.3,-49.17 0,-67.82 l 518.43,-299.314" />
        <path
           inkscape:connector-curvature="0"
           id="path3623"
           style="fill:none;stroke:#ffffff;stroke-width:23.92720032;stroke-linecap:butt;stroke-linejoin:miter;stroke-miterlimit:10;stroke-dasharray:none;stroke-opacity:1"
           d="m 1983.74,753.316 c 32.3,-18.652 58.74,-3.386 58.74,33.918 l 0,598.586 c 0,37.3 -26.44,52.56 -58.74,33.91 l -518.43,-299.28 c -32.3,-18.65 -32.3,-49.17 0,-67.82 l 518.43,-299.314 z" />
        <path
           inkscape:connector-curvature="0"
           id="path3625"
           style="fill:#393536;fill-opacity:1;fill-rule:nonzero;stroke:none"
           d="m 2100.45,753.324 c -32.31,-18.652 -58.74,-3.394 -58.74,33.91 l 0,598.586 c 0,37.3 26.43,52.56 58.74,33.91 l 518.36,-299.28 c 32.3,-18.65 32.3,-49.17 0,-67.82 L 2100.45,753.324" />
        <path
           inkscape:connector-curvature="0"
           id="path3627"
           style="fill:none;stroke:#ffffff;stroke-width:23.92720032;stroke-linecap:butt;stroke-linejoin:miter;stroke-miterlimit:10;stroke-dasharray:none;stroke-opacity:1"
           d="m 2100.45,753.324 c -32.31,-18.652 -58.74,-3.394 -58.74,33.91 l 0,598.586 c 0,37.3 26.43,52.56 58.74,33.91 l 518.36,-299.28 c 32.3,-18.65 32.3,-49.17 0,-67.82 L 2100.45,753.324 Z" />
        <path
           inkscape:connector-curvature="0"
           id="path3629"
           style="fill:#393536;fill-opacity:1;fill-rule:nonzero;stroke:none"
           d="m 2101.22,19.9219 c -32.3,-18.65237 -58.74,-3.3828 -58.74,33.9062 l 0,598.5899 c 0,37.305 26.44,52.566 58.74,33.91 l 518.37,-299.297 c 32.3,-18.652 32.3,-49.179 0,-67.832 L 2101.22,19.9219" />
        <path
           inkscape:connector-curvature="0"
           id="path3631"
           style="fill:none;stroke:#ffffff;stroke-width:23.92720032;stroke-linecap:butt;stroke-linejoin:miter;stroke-miterlimit:10;stroke-dasharray:none;stroke-opacity:1"
           d="m 2101.22,19.9219 c -32.3,-18.65237 -58.74,-3.3828 -58.74,33.9062 l 0,598.5899 c 0,37.305 26.44,52.566 58.74,33.91 l 518.37,-299.297 c 32.3,-18.652 32.3,-49.179 0,-67.832 L 2101.22,19.9219 Z" />
        <path
           inkscape:connector-curvature="0"
           id="path3633"
           style="fill:#393536;fill-opacity:1;fill-rule:nonzero;stroke:none"
           d="m 2100.45,753.324 c -32.31,-18.652 -32.31,-49.176 0,-67.828 l 518.36,-299.277 c 32.3,-18.649 58.74,-3.391 58.74,33.91 l 0,598.591 c 0,37.3 -26.44,52.56 -58.74,33.91 L 2100.45,753.324" />
        <path
           inkscape:connector-curvature="0"
           id="path3635"
           style="fill:none;stroke:#ffffff;stroke-width:23.92720032;stroke-linecap:butt;stroke-linejoin:miter;stroke-miterlimit:10;stroke-dasharray:none;stroke-opacity:1"
           d="m 2100.45,753.324 c -32.31,-18.652 -32.31,-49.176 0,-67.828 l 518.36,-299.277 c 32.3,-18.649 58.74,-3.391 58.74,33.91 l 0,598.591 c 0,37.3 -26.44,52.56 -58.74,33.91 L 2100.45,753.324 Z" />
        <path
           inkscape:connector-curvature="0"
           id="path3637"
           style="fill:#bdbcbc;fill-opacity:1;fill-rule:nonzero;stroke:none"
           d="m 1982.97,20.3398 c 32.3,-18.64839 58.74,-3.3789 58.74,33.9219 l 0,598.6053 c 0,37.305 -26.44,52.571 -58.74,33.918 L 1464.53,387.469 c -32.3,-18.649 -32.3,-49.168 0,-67.821 L 1982.97,20.3398" />
        <path
           inkscape:connector-curvature="0"
           id="path3639"
           style="fill:none;stroke:#ffffff;stroke-width:23.92720032;stroke-linecap:butt;stroke-linejoin:miter;stroke-miterlimit:10;stroke-dasharray:none;stroke-opacity:1"
           d="m 1982.97,20.3398 c 32.3,-18.64839 58.74,-3.3789 58.74,33.9219 l 0,598.6053 c 0,37.305 -26.44,52.571 -58.74,33.918 L 1464.53,387.469 c -32.3,-18.649 -32.3,-49.168 0,-67.821 L 1982.97,20.3398 Z" />
        <path
           inkscape:connector-curvature="0"
           id="path3641"
           style="fill:#bdbcbc;fill-opacity:1;fill-rule:nonzero;stroke:none"
           d="m 1982.97,754.574 c 32.3,-18.652 32.3,-49.172 0,-67.824 L 1464.53,387.469 c -32.3,-18.649 -58.74,-3.391 -58.74,33.91 l 0,598.561 c 0,37.3 26.44,52.56 58.74,33.91 l 518.44,-299.276" />
        <path
           inkscape:connector-curvature="0"
           id="path3643"
           style="fill:none;stroke:#ffffff;stroke-width:23.92720032;stroke-linecap:butt;stroke-linejoin:miter;stroke-miterlimit:10;stroke-dasharray:none;stroke-opacity:1"
           d="m 1982.97,754.574 c 32.3,-18.652 32.3,-49.172 0,-67.824 L 1464.53,387.469 c -32.3,-18.649 -58.74,-3.391 -58.74,33.91 l 0,598.561 c 0,37.3 26.44,52.56 58.74,33.91 l 518.44,-299.276 z" />
        <path
           inkscape:connector-curvature="0"
           id="path3645"
           style="fill:#393536;fill-opacity:1;fill-rule:nonzero;stroke:none"
           d="m 88.3047,690.906 c 29.8863,30.754 63.5743,53.813 101.1873,69.239 37.488,15.359 75.746,23.058 114.719,23.058 38.898,0 77.156,-7.699 114.707,-23.058 37.613,-15.426 71.309,-38.485 101.187,-69.239 l 42.063,-43.379 -84.188,-88.109 -43.41,43.344 c -18.164,18.648 -38.515,32.593 -61.125,41.996 -22.605,9.273 -45.73,13.976 -69.234,13.976 -23.574,0 -46.637,-4.703 -69.246,-13.976 -22.668,-9.403 -43.024,-23.348 -61.121,-41.996 -18.102,-17.711 -31.692,-38.223 -40.707,-61.543 -9.082,-23.281 -13.59,-47.082 -13.59,-71.332 0,-24.215 4.508,-47.989 13.59,-71.297 9.015,-23.32 22.605,-44.352 40.707,-62.93 36.195,-37.359 79.672,-55.98 130.367,-55.98 24.406,0 47.98,4.679 70.586,13.98 22.676,9.352 42.574,23.32 59.773,42 l 43.41,43.352 84.188,-88.114 -42.063,-43.418 C 490.227,216.762 456.531,193.672 418.918,178.238 381.367,162.91 343.109,155.18 304.211,155.18 c -38.973,0 -77.231,7.73 -114.719,23.058 C 151.879,193.672 118.191,216.762 88.3047,247.48 58.4219,278.27 36.2031,312.789 21.7734,351.051 7.28125,389.25 0,428.66 0,469.242 c 0,40.512 7.28125,79.93 21.7734,118.192 14.4297,38.195 36.6485,72.718 66.5313,103.472" />
        <path
           inkscape:connector-curvature="0"
           id="path3647"
           style="fill:#393536;fill-opacity:1;fill-rule:nonzero;stroke:none"
           d="m 611.055,155.18 120.832,0 0,879.797 -120.832,0 0,-879.797 z" />
        <path
           inkscape:connector-curvature="0"
           id="path3649"
           style="fill:#393536;fill-opacity:1;fill-rule:nonzero;stroke:none"
           d="m 1264.16,279.68 0,190.207 c 0,26.148 -4.7,50.558 -14.17,73.426 -9.53,22.867 -22.68,42.894 -39.41,60.156 -16.75,17.23 -36.2,30.793 -58.43,40.582 -22.22,9.789 -45.92,14.683 -71.23,14.683 -25.38,0 -49.41,-4.894 -71.95,-14.683 -22.669,-9.789 -42.376,-23.352 -59.126,-40.582 -16.746,-17.262 -29.883,-37.289 -39.356,-60.156 -9.531,-22.868 -14.226,-47.278 -14.226,-73.426 0,-26.086 4.695,-50.817 14.226,-74.137 9.473,-23.32 22.61,-43.539 39.356,-60.828 16.75,-17.231 36.457,-30.762 59.126,-40.582 22.54,-9.762 46.57,-14.66 71.95,-14.66 l 183.24,0 z m -183.24,503.523 c 42.51,0 82.12,-8.148 118.77,-24.441 36.65,-16.364 68.79,-38.746 96.41,-67.114 27.64,-28.5 49.34,-61.578 65.19,-99.351 15.85,-37.777 23.83,-78.551 23.83,-122.41 l 0,-314.707 -304.2,0 c -41.67,0 -81.025,8.179 -118.193,24.48 -37.102,16.328 -69.692,38.969 -97.778,67.82 -28.015,28.918 -49.976,62.481 -65.816,100.739 -15.852,38.222 -23.774,78.801 -23.774,121.668 0,43.859 7.922,84.633 23.774,122.41 15.84,37.773 37.801,70.851 65.816,99.351 28.086,28.368 60.676,50.75 97.778,67.114 37.168,16.293 76.523,24.441 118.193,24.441" />
        <path
           inkscape:connector-curvature="0"
           id="path3651"
           style="fill:#393536;fill-opacity:1;fill-rule:nonzero;stroke:none"
           d="m 1968.93,783.203 0,-124.469 -368.04,0 c -17.13,0 -31.69,-6.086 -43.41,-18.195 -11.79,-12.109 -17.59,-27.051 -17.59,-44.73 0,-17.715 5.8,-32.883 17.59,-45.473 11.72,-12.594 26.28,-18.875 43.41,-18.875 l 244.43,0 c 25.38,0 49.14,-4.926 71.37,-14.688 22.09,-9.789 41.54,-23.054 58.29,-39.867 16.81,-16.777 30.01,-36.582 39.48,-59.445 9.47,-22.871 14.24,-47.352 14.24,-73.43 0,-26.121 -4.77,-50.621 -14.24,-73.429 -9.47,-22.891 -22.67,-42.961 -39.48,-60.153 -16.75,-17.258 -36.2,-30.789 -58.29,-40.578 -22.23,-9.762 -45.99,-14.691 -71.37,-14.691 l -366.62,0 0,124.5 366.62,0 c 18.17,0 33.05,6.058 44.89,18.199 11.73,12.082 17.65,27.473 17.65,46.152 0,17.719 -5.92,32.617 -17.65,44.77 -11.84,12.109 -26.72,18.16 -44.89,18.16 l -244.43,0 c -25.31,0 -49.01,4.93 -71.23,14.68 -22.16,9.789 -41.49,23.316 -57.72,40.582 -16.3,17.226 -29.18,37.293 -38.71,60.125 -9.46,22.836 -14.24,47.308 -14.24,73.461 0,26.082 4.78,50.562 14.24,73.421 9.53,22.836 22.41,42.641 38.71,59.454 16.23,16.742 35.56,30.078 57.72,39.836 22.22,9.824 45.92,14.683 71.23,14.683 l 368.04,0" />
        <g
           id="g3653">
          <g
             clip-path="url(#clipPath3657)"
             id="g3655">
            <path
               inkscape:connector-curvature="0"
               id="path3669"
               style="fill:url(#radialGradient3661);fill-opacity:1;fill-rule:nonzero;stroke:none"
               d="m 2211.36,720.277 c 0,-93.359 -75.55,-168.976 -168.88,-168.976 -93.33,0 -168.94,75.617 -168.94,168.976 0,93.293 75.61,168.977 168.94,168.977 93.33,0 168.88,-75.684 168.88,-168.977" />
          </g>
        </g>
        <path
           inkscape:connector-curvature="0"
           id="path3671"
           style="fill:none;stroke:#ffffff;stroke-width:23.92720032;stroke-linecap:butt;stroke-linejoin:miter;stroke-miterlimit:10;stroke-dasharray:none;stroke-opacity:1"
           d="m 2211.36,720.277 c 0,-93.359 -75.55,-168.976 -168.88,-168.976 -93.33,0 -168.94,75.617 -168.94,168.976 0,93.293 75.61,168.977 168.94,168.977 93.33,0 168.88,-75.684 168.88,-168.977 z" />
      </g>
    </g>
  </g>
</svg>
